# SAFE DEPOSIT - generated prop
mtllib Prop_FilingCabinet.mtl
o Prop_FilingCabinet
v -0.2500 0.0000 -0.3100
v -0.2500 0.0000 0.3100
v -0.2500 1.3200 -0.3100
v -0.2500 1.3200 0.3100
v 0.2500 0.0000 -0.3100
v 0.2500 0.0000 0.3100
v 0.2500 1.3200 -0.3100
v 0.2500 1.3200 0.3100
v -0.2300 0.0650 0.3050
v -0.2300 0.0650 0.3250
v -0.2300 0.3350 0.3050
v -0.2300 0.3350 0.3250
v 0.2300 0.0650 0.3050
v 0.2300 0.0650 0.3250
v 0.2300 0.3350 0.3050
v 0.2300 0.3350 0.3250
v -0.0800 0.1825 0.3200
v -0.0800 0.1825 0.3500
v -0.0800 0.2175 0.3200
v -0.0800 0.2175 0.3500
v 0.0800 0.1825 0.3200
v 0.0800 0.1825 0.3500
v 0.0800 0.2175 0.3200
v 0.0800 0.2175 0.3500
v -0.2300 0.3750 0.3050
v -0.2300 0.3750 0.3250
v -0.2300 0.6450 0.3050
v -0.2300 0.6450 0.3250
v 0.2300 0.3750 0.3050
v 0.2300 0.3750 0.3250
v 0.2300 0.6450 0.3050
v 0.2300 0.6450 0.3250
v -0.0800 0.4925 0.3200
v -0.0800 0.4925 0.3500
v -0.0800 0.5275 0.3200
v -0.0800 0.5275 0.3500
v 0.0800 0.4925 0.3200
v 0.0800 0.4925 0.3500
v 0.0800 0.5275 0.3200
v 0.0800 0.5275 0.3500
v -0.2300 0.6850 0.3050
v -0.2300 0.6850 0.3250
v -0.2300 0.9550 0.3050
v -0.2300 0.9550 0.3250
v 0.2300 0.6850 0.3050
v 0.2300 0.6850 0.3250
v 0.2300 0.9550 0.3050
v 0.2300 0.9550 0.3250
v -0.0800 0.8025 0.3200
v -0.0800 0.8025 0.3500
v -0.0800 0.8375 0.3200
v -0.0800 0.8375 0.3500
v 0.0800 0.8025 0.3200
v 0.0800 0.8025 0.3500
v 0.0800 0.8375 0.3200
v 0.0800 0.8375 0.3500
v -0.2300 0.9950 0.3050
v -0.2300 0.9950 0.3250
v -0.2300 1.2650 0.3050
v -0.2300 1.2650 0.3250
v 0.2300 0.9950 0.3050
v 0.2300 0.9950 0.3250
v 0.2300 1.2650 0.3050
v 0.2300 1.2650 0.3250
v -0.0800 1.1125 0.3200
v -0.0800 1.1125 0.3500
v -0.0800 1.1475 0.3200
v -0.0800 1.1475 0.3500
v 0.0800 1.1125 0.3200
v 0.0800 1.1125 0.3500
v 0.0800 1.1475 0.3200
v 0.0800 1.1475 0.3500
usemtl Steel
f 1 2 4 3
f 5 7 8 6
f 1 5 6 2
f 3 4 8 7
f 1 3 7 5
f 2 6 8 4
usemtl DrawerFace
f 9 10 12 11
f 13 15 16 14
f 9 13 14 10
f 11 12 16 15
f 9 11 15 13
f 10 14 16 12
usemtl Handle
f 17 18 20 19
f 21 23 24 22
f 17 21 22 18
f 19 20 24 23
f 17 19 23 21
f 18 22 24 20
usemtl DrawerFace
f 25 26 28 27
f 29 31 32 30
f 25 29 30 26
f 27 28 32 31
f 25 27 31 29
f 26 30 32 28
usemtl Handle
f 33 34 36 35
f 37 39 40 38
f 33 37 38 34
f 35 36 40 39
f 33 35 39 37
f 34 38 40 36
usemtl DrawerFace
f 41 42 44 43
f 45 47 48 46
f 41 45 46 42
f 43 44 48 47
f 41 43 47 45
f 42 46 48 44
usemtl Handle
f 49 50 52 51
f 53 55 56 54
f 49 53 54 50
f 51 52 56 55
f 49 51 55 53
f 50 54 56 52
usemtl DrawerFace
f 57 58 60 59
f 61 63 64 62
f 57 61 62 58
f 59 60 64 63
f 57 59 63 61
f 58 62 64 60
usemtl Handle
f 65 66 68 67
f 69 71 72 70
f 65 69 70 66
f 67 68 72 71
f 65 67 71 69
f 66 70 72 68
